<?xml version="1.0" encoding="UTF-8" standalone="no"?>
<svg
   xmlns:dc="http://purl.org/dc/elements/1.1/"
   xmlns:cc="http://creativecommons.org/ns#"
   xmlns:rdf="http://www.w3.org/1999/02/22-rdf-syntax-ns#"
   xmlns:svg="http://www.w3.org/2000/svg"
   xmlns="http://www.w3.org/2000/svg"
   xmlns:sodipodi="http://sodipodi.sourceforge.net/DTD/sodipodi-0.dtd"
   xmlns:inkscape="http://www.inkscape.org/namespaces/inkscape"
   width="518.168"
   height="712.05"
   id="svg2"
   sodipodi:version="0.32"
   inkscape:version="0.46"
   sodipodi:docname="FABcube.svg"
   inkscape:output_extension="org.inkscape.output.svg.inkscape">
  <metadata
     id="metadata53">
    <rdf:RDF>
      <cc:Work
         rdf:about="">
        <dc:format>image/svg+xml</dc:format>
        <dc:type
           rdf:resource="http://purl.org/dc/dcmitype/StillImage" />
      </cc:Work>
    </rdf:RDF>
  </metadata>
  <sodipodi:namedview
     inkscape:window-height="1030"
     inkscape:window-width="1920"
     inkscape:pageshadow="2"
     inkscape:pageopacity="0.0"
     guidetolerance="10.0"
     gridtolerance="10.0"
     objecttolerance="10.0"
     borderopacity="1.0"
     bordercolor="#666666"
     pagecolor="#ffffff"
     id="base"
     showgrid="false"
     inkscape:zoom="1.1207078"
     inkscape:cx="259.08401"
     inkscape:cy="384.05872"
     inkscape:window-x="0"
     inkscape:window-y="0"
     inkscape:current-layer="svg2" />
  <defs
     id="defs4">
    <inkscape:perspective
       sodipodi:type="inkscape:persp3d"
       inkscape:vp_x="0 : 356.02499 : 1"
       inkscape:vp_y="0 : 1000 : 0"
       inkscape:vp_z="518.16803 : 356.02499 : 1"
       inkscape:persp3d-origin="259.08401 : 237.35 : 1"
       id="perspective55" />
    <marker
       id="ArrowEnd"
       viewBox="0 0 10 10"
       refX="0"
       refY="5"
       markerUnits="strokeWidth"
       markerWidth="4"
       markerHeight="3"
       orient="auto">
      <path
         d="M 0 0 L 10 5 L 0 10 z"
         id="path7" />
    </marker>
    <marker
       id="ArrowStart"
       viewBox="0 0 10 10"
       refX="10"
       refY="5"
       markerUnits="strokeWidth"
       markerWidth="4"
       markerHeight="3"
       orient="auto">
      <path
         d="M 10 0 L 0 5 L 10 10 z"
         id="path10" />
    </marker>
  </defs>
  <g
     id="g2469">
    <path
       style="fill:#209466;fill-rule:evenodd;stroke:none"
       d="M 476.156,436.207 C 476.156,436.207 470.144,432.738 470.144,432.738 C 470.144,432.738 470.144,425.906 470.144,425.906 C 470.355,425.82 470.566,425.722 470.769,425.601 C 474.07,423.683 474.418,418.113 471.539,413.156 C 468.66,408.203 463.648,405.742 460.347,407.66 C 457.043,409.578 456.699,415.152 459.578,420.105 C 460,420.836 460.468,421.507 460.972,422.121 C 460.972,422.121 460.972,427.445 460.972,427.445 C 460.972,427.445 453.976,423.406 453.976,423.406 C 453.976,423.406 453.976,397.781 453.976,397.781 C 453.976,397.781 451.414,396.3 451.414,396.3 C 449.226,400.39 447.968,405.054 447.968,410.015 C 447.968,425.789 460.504,438.628 476.156,439.132 C 476.156,439.132 476.156,436.207 476.156,436.207 z"
       id="path14" />
    <path
       style="fill:#163b64;fill-rule:evenodd;stroke:none"
       d="M 502.804,396.312 C 502.804,396.312 500.238,397.793 500.238,397.793 C 500.238,397.793 500.238,405.898 500.238,405.898 C 500.238,405.898 495.414,408.636 495.414,408.636 C 495.062,408.226 494.656,407.875 494.183,407.601 C 490.882,405.679 485.867,408.14 482.992,413.097 C 480.113,418.05 480.457,423.621 483.761,425.543 C 487.066,427.46 492.074,425 494.953,420.043 C 495.574,418.972 496.043,417.875 496.367,416.789 C 496.367,416.789 500.238,414.546 500.238,414.546 C 500.238,414.546 500.238,423.406 500.238,423.406 C 500.238,423.406 478.101,436.187 478.101,436.187 C 478.101,436.187 478.101,439.132 478.101,439.132 C 493.734,438.609 506.25,425.777 506.25,410.015 C 506.25,405.058 504.992,400.398 502.804,396.312 z"
       id="path16" />
    <path
       style="fill:#c42028;fill-rule:evenodd;stroke:none"
       d="M 454.988,396.117 C 454.988,396.117 461.89,392.132 461.89,392.132 C 461.89,392.132 466.312,394.695 466.312,394.695 C 466.156,395.175 466.07,395.671 466.07,396.183 C 466.07,400.003 470.714,403.101 476.445,403.101 C 482.175,403.101 486.82,400.003 486.82,396.183 C 486.82,392.363 482.175,389.269 476.445,389.269 C 475.168,389.269 473.945,389.421 472.812,389.707 C 472.812,389.707 469.425,387.781 469.425,387.781 C 469.425,387.781 477.109,383.347 477.109,383.347 C 477.109,383.347 499.242,396.121 499.242,396.121 C 500.199,395.57 501.07,395.066 501.832,394.625 C 496.687,386.378 487.55,380.875 477.109,380.875 C 466.672,380.875 457.539,386.375 452.39,394.617 C 453.172,395.07 454.043,395.57 454.988,396.117 z"
       id="path18" />
  </g>
  <g
     id="g2474">
    <path
       style="fill:#c42028;fill-rule:evenodd;stroke:none"
       d="M 470.578,515.796 C 470.781,515.718 470.976,515.625 471.168,515.511 C 474.261,513.714 474.586,508.492 471.886,503.851 C 469.191,499.207 464.496,496.898 461.398,498.695 C 458.304,500.496 457.98,505.718 460.679,510.363 C 461.074,511.043 461.515,511.675 461.988,512.25 C 461.988,512.25 461.988,517.242 461.988,517.242 C 461.988,517.242 455.433,513.457 455.433,513.457 C 455.433,513.457 455.433,489.515 455.433,489.515 C 455.433,489.515 451.308,487.136 451.308,487.136 C 449.113,491.238 447.863,495.925 447.863,500.906 C 447.863,516.746 460.464,529.636 476.187,530.128 C 476.187,530.128 476.187,525.437 476.187,525.437 C 476.187,525.437 470.578,522.199 470.578,522.199 C 470.578,522.199 470.578,515.796 470.578,515.796 z M 502.925,487.171 C 502.925,487.171 498.785,489.562 498.785,489.562 C 498.785,489.562 498.785,497.046 498.785,497.046 C 498.785,497.046 494.265,499.613 494.265,499.613 C 493.937,499.226 493.55,498.898 493.109,498.64 C 490.015,496.843 485.32,499.152 482.621,503.793 C 479.925,508.437 480.246,513.66 483.343,515.457 C 486.437,517.253 491.132,514.949 493.832,510.304 C 494.414,509.3 494.855,508.269 495.156,507.253 C 495.156,507.253 498.785,505.152 498.785,505.152 C 498.785,505.152 498.785,513.457 498.785,513.457 C 498.785,513.457 478.129,525.382 478.129,525.382 C 478.129,525.382 478.129,530.125 478.129,530.125 C 493.808,529.586 506.351,516.714 506.351,500.906 C 506.351,495.941 505.109,491.265 502.925,487.171 z M 486.207,487.945 C 486.207,484.363 481.855,481.46 476.488,481.46 C 475.289,481.46 474.144,481.605 473.082,481.871 C 473.082,481.871 469.906,480.07 469.906,480.07 C 469.906,480.07 477.109,475.91 477.109,475.91 C 477.109,475.91 497.824,487.871 497.824,487.871 C 499.398,486.964 500.808,486.148 501.953,485.488 C 496.793,477.191 487.597,471.664 477.109,471.664 C 466.632,471.664 457.449,477.175 452.285,485.453 C 453.468,486.136 454.886,486.953 456.433,487.847 C 456.433,487.847 462.847,484.144 462.847,484.144 C 462.847,484.144 466.992,486.546 466.992,486.546 C 466.843,486.996 466.765,487.464 466.765,487.945 C 466.765,491.523 471.117,494.425 476.488,494.425 C 481.855,494.425 486.207,491.523 486.207,487.945 z"
       id="path20" />
  </g>
  <g
     id="g2477">
    <path
       style="fill:#163b64;fill-rule:evenodd;stroke:none"
       d="M 470.578,606.753 C 470.781,606.671 470.976,606.582 471.168,606.468 C 474.261,604.671 474.586,599.449 471.886,594.804 C 469.191,590.164 464.496,587.855 461.398,589.652 C 458.304,591.449 457.98,596.675 460.679,601.316 C 461.074,602 461.515,602.628 461.988,603.207 C 461.988,603.207 461.988,608.195 461.988,608.195 C 461.988,608.195 455.433,604.414 455.433,604.414 C 455.433,604.414 455.433,580.472 455.433,580.472 C 455.433,580.472 451.308,578.089 451.308,578.089 C 449.113,582.195 447.863,586.882 447.863,591.863 C 447.863,607.703 460.464,620.593 476.187,621.082 C 476.187,621.082 476.187,616.39 476.187,616.39 C 476.187,616.39 470.578,613.156 470.578,613.156 C 470.578,613.156 470.578,606.753 470.578,606.753 z M 502.925,578.128 C 502.925,578.128 498.785,580.519 498.785,580.519 C 498.785,580.519 498.785,588.003 498.785,588.003 C 498.785,588.003 494.265,590.566 494.265,590.566 C 493.937,590.183 493.55,589.855 493.109,589.597 C 490.015,587.8 485.32,590.105 482.621,594.75 C 479.925,599.394 480.246,604.613 483.343,606.414 C 486.437,608.21 491.132,605.902 493.832,601.261 C 494.414,600.257 494.855,599.226 495.156,598.21 C 495.156,598.21 498.785,596.109 498.785,596.109 C 498.785,596.109 498.785,604.414 498.785,604.414 C 498.785,604.414 478.129,616.336 478.129,616.336 C 478.129,616.336 478.129,621.082 478.129,621.082 C 493.808,620.543 506.351,607.671 506.351,591.863 C 506.351,586.898 505.109,582.222 502.925,578.128 z M 486.207,578.898 C 486.207,575.32 481.855,572.418 476.488,572.418 C 475.289,572.418 474.144,572.562 473.082,572.828 C 473.082,572.828 469.906,571.023 469.906,571.023 C 469.906,571.023 477.109,566.867 477.109,566.867 C 477.109,566.867 497.824,578.828 497.824,578.828 C 499.398,577.918 500.808,577.105 501.953,576.441 C 496.793,568.144 487.597,562.621 477.109,562.621 C 466.632,562.621 457.449,568.132 452.285,576.41 C 453.468,577.093 454.886,577.91 456.433,578.8 C 456.433,578.8 462.847,575.101 462.847,575.101 C 462.847,575.101 466.992,577.5 466.992,577.5 C 466.843,577.953 466.765,578.418 466.765,578.898 C 466.765,582.48 471.117,585.378 476.488,585.378 C 481.855,585.378 486.207,582.48 486.207,578.898 z"
       id="path22" />
  </g>
  <g
     id="g2480">
    <path
       style="fill:#209466;fill-rule:evenodd;stroke:none"
       d="M 470.578,697.722 C 470.781,697.64 470.976,697.546 471.168,697.437 C 474.261,695.636 474.586,690.417 471.886,685.773 C 469.191,681.132 464.496,678.824 461.398,680.621 C 458.304,682.417 457.98,687.64 460.679,692.285 C 461.074,692.968 461.515,693.597 461.988,694.171 C 461.988,694.171 461.988,699.164 461.988,699.164 C 461.988,699.164 455.433,695.379 455.433,695.379 C 455.433,695.379 455.433,671.437 455.433,671.437 C 455.433,671.437 451.308,669.058 451.308,669.058 C 449.113,673.164 447.863,677.851 447.863,682.828 C 447.863,698.667 460.464,711.562 476.187,712.05 C 476.187,712.05 476.187,707.359 476.187,707.359 C 476.187,707.359 470.578,704.125 470.578,704.125 C 470.578,704.125 470.578,697.722 470.578,697.722 z M 502.925,669.093 C 502.925,669.093 498.785,671.488 498.785,671.488 C 498.785,671.488 498.785,678.972 498.785,678.972 C 498.785,678.972 494.265,681.535 494.265,681.535 C 493.937,681.152 493.55,680.82 493.109,680.566 C 490.015,678.765 485.32,681.074 482.621,685.714 C 479.925,690.359 480.246,695.582 483.343,697.379 C 486.437,699.179 491.132,696.871 493.832,692.226 C 494.414,691.226 494.855,690.195 495.156,689.175 C 495.156,689.175 498.785,687.074 498.785,687.074 C 498.785,687.074 498.785,695.379 498.785,695.379 C 498.785,695.379 478.129,707.304 478.129,707.304 C 478.129,707.304 478.129,712.046 478.129,712.046 C 493.808,711.507 506.351,698.636 506.351,682.828 C 506.351,677.863 505.109,673.191 502.925,669.093 z M 486.207,669.867 C 486.207,666.285 481.855,663.386 476.488,663.386 C 475.289,663.386 474.144,663.531 473.082,663.792 C 473.082,663.792 469.906,661.992 469.906,661.992 C 469.906,661.992 477.109,657.836 477.109,657.836 C 477.109,657.836 497.824,669.792 497.824,669.792 C 499.398,668.886 500.808,668.074 501.953,667.41 C 496.793,659.113 487.597,653.586 477.109,653.586 C 466.632,653.586 457.449,659.097 452.285,667.375 C 453.468,668.062 454.886,668.875 456.433,669.769 C 456.433,669.769 462.847,666.07 462.847,666.07 C 462.847,666.07 466.992,668.468 466.992,668.468 C 466.843,668.917 466.765,669.386 466.765,669.867 C 466.765,673.445 471.117,676.347 476.488,676.347 C 481.855,676.347 486.207,673.445 486.207,669.867 z"
       id="path24" />
  </g>
  <g
     id="g2447">
    <path
       style="fill:#209466;fill-rule:evenodd;stroke:none"
       d="M 58.1484,127.851 C 58.1484,127.851 45.7934,120.718 45.7934,120.718 C 45.7934,120.718 45.7934,106.679 45.7934,106.679 C 46.2304,106.5 46.6604,106.296 47.0784,106.054 C 53.8634,102.109 54.5744,90.66 48.6604,80.476 C 42.7461,70.293 32.4453,65.234 25.6602,69.175 C 18.8672,73.117 18.1602,84.57 24.0742,94.753 C 24.9453,96.253 25.9141,97.636 26.9453,98.898 C 26.9453,98.898 26.9453,109.843 26.9453,109.843 C 26.9453,109.843 12.5664,101.543 12.5664,101.543 C 12.5664,101.543 12.5664,48.871 12.5664,48.871 C 12.5664,48.871 7.3008,45.832 7.3008,45.832 C 2.8047,54.238 0.214901,63.82 0.214901,74.019 C 0.214901,106.441 25.9766,132.828 58.1484,133.867 C 58.1484,133.867 58.1484,127.851 58.1484,127.851 z"
       id="path26" />
    <path
       style="fill:#163b64;fill-rule:evenodd;stroke:none"
       d="M 112.922,45.847 C 112.922,45.847 107.648,48.898 107.648,48.898 C 107.648,48.898 107.648,65.558 107.648,65.558 C 107.648,65.558 97.7344,71.179 97.7344,71.179 C 97.0154,70.336 96.1754,69.617 95.2034,69.05 C 88.4144,65.109 78.1134,70.168 72.1994,80.347 C 66.2854,90.535 66.9924,101.984 73.7814,105.929 C 80.5704,109.871 90.8674,104.812 96.7814,94.628 C 98.0624,92.429 99.0274,90.171 99.6914,87.937 C 99.6914,87.937 107.648,83.332 107.648,83.332 C 107.648,83.332 107.648,101.543 107.648,101.543 C 107.648,101.543 62.1484,127.808 62.1484,127.808 C 62.1484,127.808 62.1484,133.867 62.1484,133.867 C 94.2854,132.789 120,106.414 120,74.019 C 120,63.824 117.418,54.25 112.922,45.847 z"
       id="path28" />
    <path
       style="fill:#c42028;fill-rule:evenodd;stroke:none"
       d="M 14.6406,45.449 C 14.6406,45.449 28.8282,37.261 28.8282,37.261 C 28.8282,37.261 37.9219,42.527 37.9219,42.527 C 37.5977,43.511 37.4219,44.539 37.4219,45.589 C 37.4219,53.441 46.9684,59.804 58.7464,59.804 C 70.5234,59.804 80.0664,53.441 80.0664,45.589 C 80.0664,37.738 70.5234,31.375 58.7464,31.375 C 56.1174,31.375 53.6054,31.695 51.2814,32.273 C 51.2814,32.273 44.3164,28.32 44.3164,28.32 C 44.3164,28.32 60.1094,19.203 60.1094,19.203 C 60.1094,19.203 105.597,45.46 105.597,45.46 C 107.566,44.328 109.359,43.289 110.922,42.386 C 100.347,25.433 81.5664,14.128 60.1094,14.128 C 38.6602,14.128 19.8828,25.425 9.3047,42.371 C 10.9141,43.296 12.6992,44.328 14.6406,45.449 z"
       id="path30" />
  </g>
  <g
     id="g2464">
    <path
       style="fill:#666670;fill-rule:evenodd;stroke:none"
       d="M 281.148,499.851 C 281.148,499.851 268.793,492.718 268.793,492.718 C 268.793,492.718 268.793,478.679 268.793,478.679 C 269.234,478.5 269.66,478.296 270.078,478.054 C 276.863,474.109 277.578,462.66 271.66,452.476 C 265.746,442.293 255.449,437.234 248.66,441.175 C 241.867,445.117 241.16,456.57 247.074,466.753 C 247.945,468.253 248.914,469.636 249.945,470.898 C 249.945,470.898 249.945,481.843 249.945,481.843 C 249.945,481.843 235.566,473.543 235.566,473.543 C 235.566,473.543 235.566,420.871 235.566,420.871 C 235.566,420.871 230.3,417.832 230.3,417.832 C 225.804,426.238 223.214,435.82 223.214,446.019 C 223.214,478.441 248.976,504.828 281.148,505.867 C 281.148,505.867 281.148,499.851 281.148,499.851 z"
       id="path32" />
    <path
       style="fill:#000012;fill-rule:evenodd;stroke:none"
       d="M 335.925,417.847 C 335.925,417.847 330.648,420.898 330.648,420.898 C 330.648,420.898 330.648,437.558 330.648,437.558 C 330.648,437.558 320.738,443.179 320.738,443.179 C 320.015,442.336 319.175,441.617 318.203,441.05 C 311.414,437.109 301.113,442.168 295.199,452.347 C 289.289,462.535 289.992,473.984 296.781,477.929 C 303.57,481.871 313.867,476.812 319.785,466.628 C 321.062,464.429 322.031,462.171 322.691,459.937 C 322.691,459.937 330.648,455.332 330.648,455.332 C 330.648,455.332 330.648,473.543 330.648,473.543 C 330.648,473.543 285.148,499.808 285.148,499.808 C 285.148,499.808 285.148,505.867 285.148,505.867 C 317.285,504.789 343.004,478.414 343.004,446.019 C 343.004,435.824 340.418,426.25 335.925,417.847 z"
       id="path34" />
    <path
       style="fill:#9999a0;fill-rule:evenodd;stroke:none"
       d="M 237.64,417.449 C 237.64,417.449 251.828,409.261 251.828,409.261 C 251.828,409.261 260.925,414.527 260.925,414.527 C 260.597,415.511 260.425,416.539 260.425,417.589 C 260.425,425.441 269.968,431.804 281.746,431.804 C 293.523,431.804 303.07,425.441 303.07,417.589 C 303.07,409.738 293.523,403.375 281.746,403.375 C 279.121,403.375 276.605,403.695 274.281,404.273 C 274.281,404.273 267.316,400.32 267.316,400.32 C 267.316,400.32 283.113,391.203 283.113,391.203 C 283.113,391.203 328.597,417.46 328.597,417.46 C 330.566,416.328 332.359,415.289 333.922,414.386 C 323.347,397.433 304.57,386.128 283.113,386.128 C 261.66,386.128 242.882,397.425 232.304,414.371 C 233.914,415.296 235.699,416.328 237.64,417.449 z"
       id="path36" />
  </g>
  <g
     id="g2483">
    <path
       style="fill:#209466;fill-rule:evenodd;stroke:none"
       d="M 364.234,283.027 C 364.234,283.027 333.48,265.273 333.48,265.273 C 333.48,265.273 333.48,230.328 333.48,230.328 C 334.578,229.886 335.644,229.382 336.683,228.773 C 353.57,218.957 355.343,190.464 340.621,165.117 C 325.902,139.781 300.273,127.187 283.379,136.996 C 266.48,146.804 264.714,175.312 279.437,200.656 C 281.605,204.382 284.007,207.824 286.578,210.964 C 286.578,210.964 286.578,238.203 286.578,238.203 C 286.578,238.203 250.796,217.546 250.796,217.546 C 250.796,217.546 250.796,86.464 250.796,86.464 C 250.796,86.464 237.691,78.898 237.691,78.898 C 226.496,99.824 220.05,123.668 220.05,149.054 C 220.05,229.734 284.172,295.41 364.234,297.996 C 364.234,297.996 364.234,283.027 364.234,283.027 z"
       id="path38" />
    <path
       style="fill:#163b64;fill-rule:evenodd;stroke:none"
       d="M 500.55,78.945 C 500.55,78.945 487.418,86.531 487.418,86.531 C 487.418,86.531 487.418,127.992 487.418,127.992 C 487.418,127.992 462.754,141.984 462.754,141.984 C 460.957,139.89 458.867,138.093 456.449,136.687 C 439.554,126.875 413.918,139.468 399.199,164.804 C 384.488,190.152 386.242,218.648 403.132,228.464 C 420.035,238.273 445.66,225.687 460.382,200.343 C 463.562,194.867 465.972,189.25 467.621,183.695 C 467.621,183.695 487.418,172.23 487.418,172.23 C 487.418,172.23 487.418,217.546 487.418,217.546 C 487.418,217.546 374.183,282.921 374.183,282.921 C 374.183,282.921 374.183,297.988 374.183,297.988 C 454.16,295.308 518.168,229.671 518.168,149.054 C 518.168,123.683 511.734,99.851 500.55,78.945 z"
       id="path40" />
    <path
       style="fill:#c42028;fill-rule:evenodd;stroke:none"
       d="M 255.961,77.953 C 255.961,77.953 291.269,57.57 291.269,57.57 C 291.269,57.57 313.898,70.675 313.898,70.675 C 313.089,73.132 312.656,75.683 312.656,78.304 C 312.656,97.839 336.41,113.675 365.722,113.675 C 395.027,113.675 418.785,97.839 418.785,78.304 C 418.785,58.757 395.027,42.929 365.722,42.929 C 359.183,42.929 352.922,43.718 347.136,45.164 C 347.136,45.164 329.808,35.32 329.808,35.32 C 329.808,35.32 369.117,12.632 369.117,12.632 C 369.117,12.632 482.32,77.984 482.32,77.984 C 487.218,75.156 491.679,72.578 495.57,70.332 C 469.254,28.14 422.519,0 369.117,0 C 315.734,0 269.004,28.121 242.679,70.293 C 246.675,72.597 251.125,75.16 255.961,77.953 z"
       id="path42" />
  </g>
  <g
     id="g2452">
    <path
       style="fill:#c42028;fill-rule:evenodd;stroke:none"
       d="M 46.6914,291.437 C 47.1054,291.269 47.5044,291.078 47.8944,290.851 C 54.2574,287.152 54.9224,276.425 49.3794,266.878 C 43.8364,257.336 34.1836,252.593 27.8203,256.289 C 21.4571,259.984 20.7969,270.718 26.3399,280.261 C 27.1563,281.668 28.0586,282.96 29.0274,284.144 C 29.0274,284.144 29.0274,294.402 29.0274,294.402 C 29.0274,294.402 15.5547,286.625 15.5547,286.625 C 15.5547,286.625 15.5547,237.414 15.5547,237.414 C 15.5547,237.414 7.0821,232.523 7.0821,232.523 C 2.5703,240.96 0,250.593 0,260.828 C 0,293.386 25.8985,319.882 58.2114,320.886 C 58.2114,320.886 58.2114,311.246 58.2114,311.246 C 58.2114,311.246 46.6914,304.593 46.6914,304.593 C 46.6914,304.593 46.6914,291.437 46.6914,291.437 z M 113.172,232.597 C 113.172,232.597 104.66,237.515 104.66,237.515 C 104.66,237.515 104.66,252.898 104.66,252.898 C 104.66,252.898 95.3714,258.168 95.3714,258.168 C 94.6954,257.378 93.9064,256.703 93.0004,256.171 C 86.6364,252.476 76.9844,257.218 71.4374,266.761 C 65.8984,276.308 66.5584,287.039 72.9224,290.734 C 79.2854,294.429 88.9334,289.687 94.4764,280.144 C 95.6794,278.082 96.5864,275.964 97.2074,273.875 C 97.2074,273.875 104.66,269.558 104.66,269.558 C 104.66,269.558 104.66,286.625 104.66,286.625 C 104.66,286.625 62.2114,311.132 62.2114,311.132 C 62.2114,311.132 62.2114,320.882 62.2114,320.882 C 94.4294,319.773 120.211,293.32 120.211,260.828 C 120.211,250.625 117.66,241.015 113.172,232.597 z M 78.8124,234.183 C 78.8124,226.824 69.8674,220.863 58.8284,220.863 C 56.3674,220.863 54.0114,221.16 51.8324,221.707 C 51.8324,221.707 45.3084,218 45.3084,218 C 45.3084,218 60.1094,209.457 60.1094,209.457 C 60.1094,209.457 102.687,234.035 102.687,234.035 C 105.922,232.171 108.82,230.496 111.175,229.136 C 100.566,212.086 81.6724,200.726 60.1094,200.726 C 38.5821,200.726 19.7032,212.054 9.0899,229.066 C 11.5274,230.472 14.4297,232.148 17.6133,233.988 C 17.6133,233.988 30.793,226.378 30.793,226.378 C 30.793,226.378 39.3164,231.312 39.3164,231.312 C 39.0117,232.238 38.8477,233.199 38.8477,234.183 C 38.8477,241.543 47.7934,247.507 58.8284,247.507 C 69.8674,247.507 78.8124,241.543 78.8124,234.183 z"
       id="path44" />
  </g>
  <g
     id="g2455">
    <path
       style="fill:#163b64;fill-rule:evenodd;stroke:none"
       d="M 46.6914,478.382 C 47.1054,478.21 47.5044,478.023 47.8944,477.793 C 54.2574,474.093 54.9224,463.367 49.3794,453.82 C 43.8364,444.281 34.1836,439.539 27.8203,443.234 C 21.4571,446.925 20.7969,457.66 26.3399,467.207 C 27.1563,468.609 28.0586,469.906 29.0274,471.086 C 29.0274,471.086 29.0274,481.343 29.0274,481.343 C 29.0274,481.343 15.5547,473.566 15.5547,473.566 C 15.5547,473.566 15.5547,424.359 15.5547,424.359 C 15.5547,424.359 7.0821,419.468 7.0821,419.468 C 2.5703,427.902 0,437.535 0,447.773 C 0,480.332 25.8985,506.824 58.2114,507.832 C 58.2114,507.832 58.2114,498.187 58.2114,498.187 C 58.2114,498.187 46.6914,491.539 46.6914,491.539 C 46.6914,491.539 46.6914,478.382 46.6914,478.382 z M 113.172,419.543 C 113.172,419.543 104.66,424.457 104.66,424.457 C 104.66,424.457 104.66,439.843 104.66,439.843 C 104.66,439.843 95.3714,445.109 95.3714,445.109 C 94.6954,444.32 93.9064,443.644 93.0004,443.117 C 86.6364,439.421 76.9844,444.164 71.4374,453.703 C 65.8984,463.25 66.5584,473.98 72.9224,477.679 C 79.2854,481.371 88.9334,476.632 94.4764,467.089 C 95.6794,465.027 96.5864,462.91 97.2074,460.816 C 97.2074,460.816 104.66,456.5 104.66,456.5 C 104.66,456.5 104.66,473.566 104.66,473.566 C 104.66,473.566 62.2114,498.074 62.2114,498.074 C 62.2114,498.074 62.2114,507.824 62.2114,507.824 C 94.4294,506.718 120.211,480.265 120.211,447.773 C 120.211,437.566 117.66,427.96 113.172,419.543 z M 78.8124,421.128 C 78.8124,413.769 69.8674,407.808 58.8284,407.808 C 56.3674,407.808 54.0114,408.105 51.8324,408.648 C 51.8324,408.648 45.3084,404.941 45.3084,404.941 C 45.3084,404.941 60.1094,396.398 60.1094,396.398 C 60.1094,396.398 102.687,420.98 102.687,420.98 C 105.922,419.113 108.82,417.441 111.175,416.078 C 100.566,399.027 81.6724,387.668 60.1094,387.668 C 38.5821,387.668 19.7032,398.996 9.0899,416.007 C 11.5274,417.418 14.4297,419.093 17.6133,420.929 C 17.6133,420.929 30.793,413.32 30.793,413.32 C 30.793,413.32 39.3164,418.257 39.3164,418.257 C 39.0117,419.183 38.8477,420.14 38.8477,421.128 C 38.8477,428.484 47.7934,434.449 58.8284,434.449 C 69.8674,434.449 78.8124,428.484 78.8124,421.128 z"
       id="path46" />
  </g>
  <g
     id="g2461">
    <path
       style="fill:#000012;fill-rule:evenodd;stroke:none"
       d="M 269.691,643.382 C 270.105,643.21 270.507,643.023 270.894,642.793 C 277.257,639.093 277.922,628.367 272.379,618.82 C 266.836,609.281 257.183,604.539 250.82,608.234 C 244.457,611.925 243.796,622.66 249.339,632.207 C 250.156,633.609 251.062,634.906 252.027,636.086 C 252.027,636.086 252.027,646.343 252.027,646.343 C 252.027,646.343 238.554,638.566 238.554,638.566 C 238.554,638.566 238.554,589.359 238.554,589.359 C 238.554,589.359 230.082,584.468 230.082,584.468 C 225.57,592.902 223.004,602.535 223.004,612.773 C 223.004,645.332 248.898,671.824 281.211,672.832 C 281.211,672.832 281.211,663.187 281.211,663.187 C 281.211,663.187 269.691,656.539 269.691,656.539 C 269.691,656.539 269.691,643.382 269.691,643.382 z M 336.175,584.543 C 336.175,584.543 327.664,589.457 327.664,589.457 C 327.664,589.457 327.664,604.843 327.664,604.843 C 327.664,604.843 318.375,610.109 318.375,610.109 C 317.699,609.32 316.906,608.644 316,608.117 C 309.636,604.421 299.984,609.164 294.441,618.703 C 288.898,628.25 289.562,638.98 295.922,642.679 C 302.285,646.371 311.937,641.632 317.48,632.089 C 318.679,630.027 319.586,627.91 320.207,625.816 C 320.207,625.816 327.664,621.5 327.664,621.5 C 327.664,621.5 327.664,638.566 327.664,638.566 C 327.664,638.566 285.211,663.074 285.211,663.074 C 285.211,663.074 285.211,672.824 285.211,672.824 C 317.429,671.718 343.214,645.261 343.214,612.773 C 343.214,602.566 340.66,592.96 336.175,584.543 z M 301.816,586.128 C 301.816,578.769 292.867,572.808 281.832,572.808 C 279.371,572.808 277.015,573.105 274.832,573.648 C 274.832,573.648 268.308,569.941 268.308,569.941 C 268.308,569.941 283.113,561.398 283.113,561.398 C 283.113,561.398 325.691,585.98 325.691,585.98 C 328.922,584.113 331.82,582.441 334.175,581.078 C 323.57,564.027 304.672,552.668 283.113,552.668 C 261.582,552.668 242.703,563.996 232.089,581.007 C 234.527,582.418 237.433,584.093 240.613,585.929 C 240.613,585.929 253.796,578.32 253.796,578.32 C 253.796,578.32 262.316,583.257 262.316,583.257 C 262.011,584.183 261.847,585.14 261.847,586.128 C 261.847,593.484 270.793,599.449 281.832,599.449 C 292.867,599.449 301.816,593.484 301.816,586.128 z"
       id="path48" />
  </g>
  <g
     id="g2458">
    <path
       style="fill:#209466;fill-rule:evenodd;stroke:none"
       d="M 46.6914,665.347 C 47.1054,665.179 47.5044,664.988 47.8944,664.761 C 54.2574,661.062 54.9224,650.336 49.3794,640.789 C 43.8364,631.246 34.1836,626.507 27.8203,630.199 C 21.4571,633.894 20.7969,644.628 26.3399,654.175 C 27.1563,655.578 28.0586,656.875 29.0274,658.054 C 29.0274,658.054 29.0274,668.312 29.0274,668.312 C 29.0274,668.312 15.5547,660.535 15.5547,660.535 C 15.5547,660.535 15.5547,611.328 15.5547,611.328 C 15.5547,611.328 7.0821,606.437 7.0821,606.437 C 2.5703,614.871 0,624.503 0,634.738 C 0,667.296 25.8985,693.792 58.2114,694.8 C 58.2114,694.8 58.2114,685.156 58.2114,685.156 C 58.2114,685.156 46.6914,678.507 46.6914,678.507 C 46.6914,678.507 46.6914,665.347 46.6914,665.347 z M 113.172,606.511 C 113.172,606.511 104.66,611.425 104.66,611.425 C 104.66,611.425 104.66,626.808 104.66,626.808 C 104.66,626.808 95.3714,632.078 95.3714,632.078 C 94.6954,631.289 93.9064,630.613 93.0004,630.086 C 86.6364,626.39 76.9844,631.132 71.4374,640.671 C 65.8984,650.218 66.5584,660.949 72.9224,664.648 C 79.2854,668.339 88.9334,663.601 94.4764,654.058 C 95.6794,651.996 96.5864,649.878 97.2074,647.785 C 97.2074,647.785 104.66,643.468 104.66,643.468 C 104.66,643.468 104.66,660.535 104.66,660.535 C 104.66,660.535 62.2114,685.042 62.2114,685.042 C 62.2114,685.042 62.2114,694.792 62.2114,694.792 C 94.4294,693.687 120.211,667.23 120.211,634.738 C 120.211,624.535 117.66,614.929 113.172,606.511 z M 78.8124,608.097 C 78.8124,600.738 69.8674,594.773 58.8284,594.773 C 56.3674,594.773 54.0114,595.07 51.8324,595.617 C 51.8324,595.617 45.3084,591.91 45.3084,591.91 C 45.3084,591.91 60.1094,583.367 60.1094,583.367 C 60.1094,583.367 102.687,607.949 102.687,607.949 C 105.922,606.082 108.82,604.41 111.175,603.046 C 100.566,585.996 81.6724,574.636 60.1094,574.636 C 38.5821,574.636 19.7032,585.964 9.0899,602.976 C 11.5274,604.386 14.4297,606.062 17.6133,607.898 C 17.6133,607.898 30.793,600.289 30.793,600.289 C 30.793,600.289 39.3164,605.226 39.3164,605.226 C 39.0117,606.148 38.8477,607.109 38.8477,608.097 C 38.8477,615.453 47.7934,621.418 58.8284,621.418 C 69.8674,621.418 78.8124,615.453 78.8124,608.097 z"
       id="path50" />
  </g>
</svg>
