#define logo_y_letras_fondo_blanco_width 64
#define logo_y_letras_fondo_blanco_height 60
static unsigned short logo_y_letras_fondo_blanco_bits[] = {
   0x0000, 0x0000, 0x0000, 0x0000, 0x1ffc, 0x0000, 0x0000, 0x0400, 0x0006,
   0x0000, 0x0000, 0x0600, 0x0002, 0x0000, 0x0000, 0x0400, 0x0002, 0x0000,
   0x0000, 0x0400, 0x0002, 0x0404, 0x0110, 0x1408, 0x0002, 0x7f7f, 0x8ffc,
   0x7cff, 0x86dc, 0xc1c1, 0x9800, 0x0580, 0x9da8, 0x8080, 0xd000, 0x0500,
   0x9000, 0x8080, 0x5ff0, 0x0400, 0x9000, 0x8080, 0x580c, 0x0600, 0x9000,
   0x8080, 0x5004, 0x0400, 0x9000, 0x8080, 0xd004, 0x0400, 0x9800, 0x8080,
   0x580c, 0x0c00, 0x8ffe, 0x8080, 0x4ff8, 0x7800, 0x0000, 0x0000, 0x0000,
   0x0000, 0x0000, 0x0000, 0x0000, 0x0000, 0x0000, 0x0000, 0x0000, 0x0000,
   0x0000, 0x0000, 0x0000, 0x0000, 0x0000, 0x0000, 0x0000, 0x0000, 0x0000,
   0x0000, 0x0000, 0x0000, 0x0000, 0x0000, 0x0000, 0x0000, 0x0000, 0x0000,
   0x0000, 0x0000, 0xf000, 0x00ff, 0x0000, 0x0000, 0x1800, 0x0180, 0x0000,
   0x0000, 0x0800, 0x0100, 0x0000, 0x0000, 0x0800, 0x0100, 0x0000, 0x0000,
   0x0800, 0x0100, 0x0000, 0x0000, 0x0800, 0xf100, 0xff1f, 0x3ff3, 0x0800,
   0x0900, 0x0130, 0x2032, 0x0800, 0x0d00, 0x01a0, 0x2014, 0x0800, 0x0900,
   0x0120, 0x2034, 0x0800, 0x0d00, 0xffa0, 0x2017, 0x0800, 0x0900, 0x01a0,
   0x2030, 0x0800, 0x0d00, 0x00a0, 0x2010, 0x1800, 0x0980, 0x0330, 0x2030,
   0xf000, 0xfcff, 0xff1f, 0x2003, 0x0000, 0x0c00, 0x0000, 0x0000, 0x0000,
   0x0c00, 0x0000, 0x0000, 0x0000, 0x0800, 0x0000, 0x0000, 0x0000, 0x0c00,
   0x0000, 0x0000, 0x0000, 0x0000, 0x0000, 0x0000, 0x0000, 0x0000, 0x0000,
   0x0000, 0x0000, 0x0000, 0x0000, 0x0000, 0x0000, 0x0000, 0x0000, 0x0000,
   0x0000, 0x0400, 0x0000, 0x0010, 0x0000, 0x0400, 0x0000, 0x0010, 0x0000,
   0x0400, 0x0000, 0x0010, 0x0000, 0x0400, 0x0000, 0x0010, 0x0000, 0x0400,
   0x0000, 0x0010, 0x0000, 0x0400, 0xff00, 0x3ff1, 0x0000, 0x0400, 0x0000,
   0x2013, 0x0000, 0x0400, 0x0000, 0x4012, 0x0000, 0x0400, 0xb600, 0x4013,
   0x0000, 0x0400, 0xab00, 0x4012, 0x0000, 0x0400, 0x0100, 0x4012, 0x0000,
   0x0400, 0x0080, 0x4012, 0x0000, 0x0c00, 0x0180, 0x2033, 0x0000, 0xf800,
   0xff7f, 0x3fe1, 0x0000, 0x0000, 0x0000, 0x0000 };
